inDegrees=no
num_controls=7
num_derivatives=13
num_iterations=100
num_multipliers=7
num_parameters=0
num_slacks=7
num_states=26
objective=0.237235
objective_accelerations=0.000000
objective_balance=0.002131
objective_effort=0.066477
objective_height=0.168627
objective_ligament=0.000000
solver_duration=1295.385379
status=Solve_Succeeded
success=true
DataType=double
version=3
OpenSimVersion=4.5
endheader
time	/jointset/ground_pelvis/pelvis_tilt/value	/jointset/ground_pelvis/pelvis_tx/value	/jointset/ground_pelvis/pelvis_ty/value	/jointset/hip_l/hip_flexion_l/value	/jointset/hip_l/hip_adduction_l/value	/jointset/hip_l/hip_rotation_l/value	/jointset/back/lumbar_extension/value	/jointset/patellofemoral_l/patellar_flexion_l/value	/jointset/knee_l/knee_flexion_l/value	/jointset/knee_l/knee_adduction_l/value	/jointset/knee_l/knee_rotation_l/value	/jointset/ankle_l/ankle_angle_l/value	/jointset/subtalar_l/subtalar_angle_l/value	/jointset/ground_pelvis/pelvis_tilt/speed	/jointset/ground_pelvis/pelvis_tx/speed	/jointset/ground_pelvis/pelvis_ty/speed	/jointset/hip_l/hip_flexion_l/speed	/jointset/hip_l/hip_adduction_l/speed	/jointset/hip_l/hip_rotation_l/speed	/jointset/back/lumbar_extension/speed	/jointset/patellofemoral_l/patellar_flexion_l/speed	/jointset/knee_l/knee_flexion_l/speed	/jointset/knee_l/knee_adduction_l/speed	/jointset/knee_l/knee_rotation_l/speed	/jointset/ankle_l/ankle_angle_l/speed	/jointset/subtalar_l/subtalar_angle_l/speed	/forceset/tau_hip_flexion_l	/forceset/tau_hip_adduction_l	/forceset/tau_hip_rotation_l	/forceset/tau_knee_flexion_l	/forceset/tau_ankle_angle_l	/forceset/tau_subtalar_angle_l	/forceset/tau_lumbar_extension	lambda_cid13_p0	lambda_cid13_p1	lambda_cid13_p2	lambda_cid13_p3	lambda_cid13_p4	lambda_cid13_p5	lambda_cid14_p0	/jointset/ground_pelvis/pelvis_tilt/accel	/jointset/ground_pelvis/pelvis_tx/accel	/jointset/ground_pelvis/pelvis_ty/accel	/jointset/hip_l/hip_flexion_l/accel	/jointset/hip_l/hip_adduction_l/accel	/jointset/hip_l/hip_rotation_l/accel	/jointset/back/lumbar_extension/accel	/jointset/patellofemoral_l/patellar_flexion_l/accel	/jointset/knee_l/knee_flexion_l/accel	/jointset/knee_l/knee_adduction_l/accel	/jointset/knee_l/knee_rotation_l/accel	/jointset/ankle_l/ankle_angle_l/accel	/jointset/subtalar_l/subtalar_angle_l/accel	gamma_cid13_p0	gamma_cid13_p1	gamma_cid13_p2	gamma_cid13_p3	gamma_cid13_p4	gamma_cid13_p5	gamma_cid14_p0
1.5	-0.1041679797231578	-0.06783249547111699	0.4208629577946509	2.094236897846114	-0.2964016320966137	0.1225466830976272	-0.9152848333338622	2.094187974790697	2.094187974790698	0.1745088197405955	-0.1743570876083596	0.2521626517766657	0.09357483361210646	-0.2555569660416817	0.08139764727552393	0.0396352051135616	-0.003610059407531351	-0.02425338740779536	-0.01486749659917288	1.06044236509282	-0.03820641053924911	-0.03820641053924673	-0.005510826770189273	0.004784302318297303	0.229054502455467	0.07603063241024313	-0.4669086311291913	-0.06413382117230385	-0.0610644884989906	-0.4026933235420977	0.157937359614252	-0.01013732205488533	0.5709616359931029	-8.785455843162488	16.22553574936556	-14.78861938971673	-53.35143641553545	-932.7834759780412	-11.29767933880464	-0.02137322125341859	-9.70387511436636	1.31536520059049	1.358846369717876	1.861693547255007	-1.122651254416112	0.5726788382563276	18.22731523808434	-4.332360188880495	-4.332360188880342	-2.662921607103791	-1.650936028957257	3.447359747276823	0.1660895351667669	-7.620334529390377e-08	1.476611476064166e-06	-1.722131502638955e-06	6.375423364812882e-07	2.893630799790399e-07	1.867386230719076e-06	3.897016911699033e-08
1.51	-0.1072155051908222	-0.06695792978880444	0.4213384806153433	2.09426451278483	-0.2967016440993624	0.1223629064490856	-0.9037759229082869	2.093554218446327	2.093554218446337	0.1743655596191662	-0.1743698793969993	0.2546230285946808	0.09434169777185945	-0.3548821287403632	0.09300536556234548	0.05653912364142592	0.006630908779455172	-0.03601428387708264	-0.02819055264757746	1.241040334310588	-0.09206815647369289	-0.09206815647368619	-0.01879832319123163	-0.00547196002903971	0.2625745055728571	0.07689920593191313	-0.4786315407482798	-0.06333307823135433	-0.06240721732988183	-0.4324994887853693	0.1551446699629691	-0.009974452114801864	0.5791530607920473	-12.29353428759889	17.00135403307911	-15.17766232028325	-41.01250554711611	-965.2402659178832	-17.17366887907397	-0.02149967821326399	-10.18683890765718	1.007260458897677	2.016692048761303	0.2300527018108351	-1.241970806532138	-3.229983717387534	17.93112990688156	-6.441735031681008	-6.441735031680482	-0.009572442031759085	-0.433350802713063	3.237242153079671	-0.01866051356975544	-2.107456816690146e-07	1.018784881320361e-07	-3.01401084081315e-06	1.219501940595664e-06	3.054979481778204e-07	-5.533846170443027e-06	5.363497173308747e-07
1.52	-0.1112842826974809	-0.06598252986038973	0.4220151481122025	2.094319488254892	-0.2971270974594734	0.1218568620618599	-0.8904700143618824	2.092276113995423	2.092276113995439	0.17421984277704	-0.1744293097021292	0.2574051897556917	0.09510406731198176	-0.4598073738405707	0.1015644964959564	0.07986414034690435	0.001862046862055722	-0.04934165888025407	-0.07932104433592951	1.419841989258698	-0.1670760318463244	-0.1670760318463153	-0.006002170909366004	-0.004543400980022351	0.2934113710546306	0.07513170848410827	-0.4903544503673683	-0.06253233529040486	-0.06374994616077249	-0.4623056540286411	0.152351980311686	-0.009811582174718499	0.5873444855909918	-15.78438807768069	17.78893050002022	-15.58545881598886	-29.04473068191839	-997.6847379814157	-22.85951327613638	-0.02172147306491628	-10.82389159467153	0.7056477299483577	2.643066005240695	-1.140272473622181	-1.435946961192942	-6.988808289733162	17.86805238415273	-8.561586076518026	-8.561586076518266	2.553808133477804	0.5860282503136142	2.910732220153538	-0.3611246587282048	-1.620465760077189e-07	-1.037278359958977e-07	-2.310558967105131e-06	1.011224099248676e-06	1.852530353735545e-07	-5.04214052675064e-06	4.776054664081458e-07
1.53	-0.1164397655865782	-0.06493381162652474	0.4229454361276085	2.094295802161156	-0.2976846050696398	0.1207378855214433	-0.875365332234885	2.090167687161262	2.090167687161256	0.1742662147276772	-0.1744444700083845	0.2604759636391686	0.09584283257911412	-0.5732928497559042	0.1079556020722395	0.1060823388799974	-0.004561443849367039	-0.06157162173220846	-0.1415507117664526	1.602893652939936	-0.2556338660100276	-0.2556338660099978	0.01249502559276206	0.001008942827321207	0.319612996370284	0.072809308943126	-0.4862695043843746	-0.06017911632960549	-0.06359174041642739	-0.470983694481662	0.1494108192868774	-0.008709924633366162	0.5807409993974332	-16.95787345299311	17.55213674291855	-15.58904412869714	-24.03842836200202	-998.7069137646722	-25.2680442285641	-0.02218043291096894	-11.91148587927592	0.5721902046017596	2.594483830488079	-0.08777036313682762	-1.028526966287876	-5.401676991011809	18.79360587998634	-9.156457779954044	-9.15645777995076	1.079995599712093	0.465129397904581	2.305429719700993	-0.1400872174379404	8.134656181725666e-08	9.328629201681134e-07	5.129323192277166e-07	-3.668102790100006e-08	-7.989539474644693e-08	3.835811789599551e-06	-1.720203210972284e-07
1.54	-0.122790225292691	-0.06382791269027022	0.4241345635389742	2.094269004561659	-0.298346813512144	0.1190842861024612	-0.8583761569670999	2.087142966846733	2.087142966846705	0.1744140226815605	-0.1744190484861742	0.263774864182288	0.0965639159277057	-0.6988027372437053	0.1130006369738629	0.1316320195388604	0.00123974570982966	-0.07028182534781048	-0.186245620048973	1.796740617416253	-0.3503347279200343	-0.3503347279199817	0.01428502974016167	0.00357296471305897	0.3390367029831276	0.07159532477595561	-0.4821845584013811	-0.0578258973688062	-0.06343353467208228	-0.4796617349346834	0.1464696582620686	-0.007608267092013909	0.5741375132038748	-18.12171625644665	17.33335355035927	-15.61799754166797	-19.13921836524339	-999.6842060752423	-27.42938890504983	-0.02276948846757236	-13.22877390916507	0.4364335950163916	2.509362430394682	1.30466358050171	-0.7319951139224697	-3.481856460132626	20.02711254316839	-9.790191625778714	-9.790191625778549	-0.7876303374678814	-0.01163613400754537	1.555148479591588	-0.1394415839658295	1.38564441633153e-07	1.255400913798226e-06	1.311841159102475e-06	-4.106678004442188e-07	-1.630587466219512e-07	6.844736306622823e-06	-4.139081939474361e-07
1.55	-0.1304227994783248	-0.06267699316644031	0.4255806293664798	2.094320781328476	-0.2990874681900982	0.1170537419898266	-0.8394322413084988	2.083143263180981	2.08314326318097	0.1745088107034127	-0.1743893261406999	0.2672450217321431	0.09727210746713585	-0.8263591484396977	0.1170921655604187	0.157951402355093	0.007054867528726545	-0.07809742048880593	-0.2196537781745177	1.989994025141161	-0.4503334279379061	-0.4503334279378702	0.004062610608038693	0.001696871128255788	0.3549509289060221	0.0696827355823449	-0.4795931891469903	-0.05581323455874775	-0.06361040073281859	-0.4867293117972401	0.1441053851843357	-0.006447804725272518	0.5645407703344575	-18.96377693015327	17.03306512941148	-15.63438809306315	-15.97633125172293	-999.7811051093674	-29.0894705785836	-0.02300648822551006	-12.31615072681481	0.3818902395230602	2.748771414670628	-0.08919662236136165	-0.8433475382951074	-3.238945853017179	18.66718151273201	-10.21381071561782	-10.21381071562043	-1.231036043380335	-0.3769716387275655	1.602950617149485	-0.2711474007090715	-1.872395408313879e-08	7.552259419001947e-07	-2.219210806373925e-07	-8.183425288736056e-09	-3.654363878098124e-08	3.091520098335012e-06	-1.860110781732386e-07
1.56	-0.1392903529763183	-0.06148788280693526	0.4273009980636342	2.094368882692492	-0.2999136799842837	0.114695386223086	-0.8186172462475326	2.078121752209885	2.078121752209891	0.1744830768654888	-0.1743986398646749	0.2708729997349293	0.0979503771518998	-0.9457985997156313	0.1206388041088909	0.1864925934686396	0.0005046651498214216	-0.08739324859408246	-0.2518079508701342	2.170956497889269	-0.5546961889888347	-0.5546961889888159	-0.009819342215917463	-0.004234249176981823	0.3706007935693612	0.06561095384271896	-0.4770018198925995	-0.05380057174868941	-0.06378726679355418	-0.4937968886597969	0.1417411121066027	-0.00528734235853129	0.5549440274650401	-19.79872933789951	16.73334143910711	-15.65293459626576	-12.8953555193823	-999.8482449814642	-30.65098070082494	-0.02337639503779742	-11.60538192515333	0.3274555873996611	2.953724089857483	-1.168401259058691	-1.028041706778688	-3.231059374146992	17.56892554780838	-10.66300383239005	-10.66300383238998	-1.519537075834517	-0.8226414780944308	1.502276227680531	-0.5712800931688795	4.585495126447923e-08	2.936659796263513e-07	-1.496320496508037e-06	-1.501492471412311e-07	-1.925427799429581e-07	-4.233772260891723e-07	4.522991647805145e-08
1.57	-0.1493404489463063	-0.06026643031907897	0.4293132121325604	2.094327164406592	-0.3008332752790721	0.1119768885580871	-0.7960181817630174	2.072034764898484	2.072034764898445	0.1743457668619564	-0.1744601509497485	0.2746457954835971	0.09858217665543144	-1.065861166820113	0.1235109553158861	0.2158498817034993	-0.007068889265416665	-0.09612266578665228	-0.2954946940996391	2.350556179631957	-0.6635076109078963	-0.6635076109078866	-0.01432401425150543	-0.006443409053236855	0.3828672651313093	0.06081955459951262	-0.4738893568915036	-0.05210067913105827	-0.0644964572000902	-0.5004694467037115	0.1392245668094743	-0.00331571150359438	0.5474794193359721	-20.61073380444308	15.98829924362761	-15.49881999718004	-10.22213199581809	-999.8669893881842	-33.08715915631542	-0.02407553570466158	-12.45278858624754	0.2456949144048878	2.911481432919565	-0.2849187522897741	-0.7344391619296455	-5.477819702224799	18.41045658023014	-11.11124525336566	-11.11124525336715	0.5823006030988391	0.3228827971917206	0.9252216735794166	-0.4220744512282033	3.877679829419817e-07	-1.196252206172583e-07	-2.446516382542158e-06	-9.726778152536918e-07	-7.01684732358615e-07	-3.640375945683827e-06	2.806507597257071e-07
1.58	-0.1606403894839696	-0.05902053631374164	0.4316159491323588	2.094263093332633	-0.3018279742330729	0.1087134558798184	-0.7715721270425291	2.064835456591553	2.064835456591467	0.1742630567121703	-0.1744951664256683	0.2785085337585099	0.0991682612442647	-1.195767513250673	0.1255271076051003	0.2445971796431247	-0.003965892461991369	-0.1024139804365628	-0.3607949535240467	2.540354545083888	-0.7771603880950161	-0.7771603880950193	0.001100628533697693	0.001064872653818542	0.3885892988183559	0.05646797090303862	-0.4707768938904077	-0.05040078651342713	-0.06520564760662639	-0.5071420047476263	0.1367080215123458	-0.001344080648657444	0.5400148112069041	-21.421340846334	15.25335278175675	-15.35811557037087	-7.551161777896865	-999.9108221712077	-35.33390014727002	-0.02492256429329844	-13.57413779036891	0.1562558038434635	2.831726030810638	0.9669089846739886	-0.5404211982468188	-7.553762613127534	19.60866228965682	-11.63127488600169	-11.63127488600237	2.466325888323702	1.120846838567656	0.1933886527002301	-0.4833169838224091	4.237443751495695e-07	1.990603384808109e-07	-1.757807592100372e-06	-1.242388739780646e-06	-8.564940203210794e-07	-1.074889542343163e-06	8.922535410444387e-08
